Coordinates
version=1
nRows=9
nColumns=42
inDegrees=yes

Units are S.I. units (second, meters, Newtons, ...)
If the header above contains a line with 'inDegrees', this indicates whether rotational values are in degrees (yes) or radians (no).

endheader
time	pelvis_tilt	pelvis_list	pelvis_rotation	pelvis_tx	pelvis_ty	pelvis_tz	hip_flexion_r	hip_adduction_r	hip_rotation_r	knee_angle_r	knee_adduction_r	knee_angle_r_beta	ankle_angle_r	subtalar_angle_r	mtp_angle_r	hip_flexion_l	hip_adduction_l	hip_rotation_l	knee_angle_l	knee_adduction_l	knee_angle_l_beta	ankle_angle_l	subtalar_angle_l	mtp_angle_l	lumbar_extension	lumbar_bending	lumbar_rotation	arm_flex_r	arm_add_r	arm_rot_r	elbow_flex_r	pro_sup_r	wrist_flex_r	wrist_dev_r	arm_flex_l	arm_add_l	arm_rot_l	elbow_flex_l	pro_sup_l	wrist_flex_l	wrist_dev_l
      0.81000000	     -2.60947516	      9.71189839	     87.10612345	      0.46180227	      0.95914966	     -0.67651668	      4.20132377	     -5.62324341	      1.33571374	     70.45504045	      5.96791786	      1.22967243	    -13.04009750	    -13.28108242	    -13.65603346	      3.05220790	      5.52758274	     -5.36663991	     25.64938088	      5.46256159	      0.44766615	      9.95877081	    -11.12576925	    -11.97650482	    -19.54839522	      0.64498422	      1.82338385	      3.38084061	    -16.11173605	     -7.53567965	     38.68179530	     90.00000001	      0.00000000	      0.00000000	     -2.57004977	    -10.91231819	      0.21576029	     37.59130566	     90.00000001	      0.00000000	      0.00000000
      0.82000000	     -2.26283348	      9.58889262	     87.18640995	      0.46160715	      0.96187080	     -0.67568351	      6.19269317	     -4.95625197	      1.33967737	     70.72608077	      5.96791786	      1.23440298	    -11.41241169	    -13.34597834	    -13.94970422	      1.71401108	      5.21059356	     -4.96358719	     24.61052661	      5.46256159	      0.42953472	     10.12467580	    -10.71040980	    -11.77701234	    -19.52672058	      1.07894867	      1.51957578	      2.68920501	    -15.77264450	     -7.44173275	     37.78877591	     90.00000001	      0.00000000	      0.00000000	     -1.97271356	    -11.11925557	     -0.01551803	     38.58111814	     90.00000001	      0.00000000	      0.00000000
      0.83000000	     -2.13642626	      9.64518557	     87.30593428	      0.46139745	      0.96470110	     -0.67491872	      7.91913888	     -4.58035665	      1.45719897	     70.78970747	      5.96791786	      1.23551347	     -9.33395248	    -12.03179274	    -13.75816706	      0.06467526	      5.12413832	     -4.59132102	     23.30739796	      5.46256159	      0.40679083	     10.30739485	    -10.23730346	    -10.87722095	    -19.64987367	      1.22360363	      0.70227781	      2.54217306	    -15.19103872	     -7.30772350	     36.23440774	     90.00000001	      0.00000000	      0.00000000	     -1.79950816	    -11.32280600	     -1.27256853	     40.36827363	     90.00000001	      0.00000000	      0.00000000
      0.84000000	     -1.76468278	      9.41696269	     87.50566025	      0.46109818	      0.96703916	     -0.67393246	      9.84582896	     -3.90850053	      1.24107903	     70.37785704	      5.96791786	      1.22832533	     -7.95371972	    -12.06205540	    -13.92223937	     -1.09682731	      4.69535416	     -4.33921228	     22.35024918	      5.46256159	      0.39008544	     10.36491786	     -9.72504874	    -10.73657125	    -19.49925925	      1.72736624	      0.44569187	      1.58879649	    -14.89642476	     -7.24369254	     35.52253045	     90.00000001	      0.00000000	      0.00000000	     -1.10516682	    -11.53691147	     -1.33650483	     41.33322198	     90.00000001	      0.00000000	      0.00000000
      0.85000000	     -1.38500625	      9.52630735	     87.75852589	      0.46077453	      0.96973530	     -0.67291423	     11.23371880	     -3.34056838	      0.95521264	     69.58223267	      5.96791786	      1.21443906	     -6.42158207	    -10.89235073	    -13.98028038	     -2.70396362	      4.22871895	     -4.12462469	     21.23986877	      5.46256159	      0.37070564	     10.55783586	     -8.78421401	    -10.55040783	    -19.75935012	      2.19877419	     -0.22006572	      1.20050918	    -14.43430519	     -7.43017035	     34.40529952	     90.00000001	      0.00000000	      0.00000000	     -0.78474084	    -11.93215271	     -1.54903417	     43.00776849	     90.00000001	      0.00000000	      0.00000000
      0.86000000	     -1.14869666	      9.22862882	     87.95043302	      0.46049214	      0.97159835	     -0.67179616	     13.02935520	     -2.87989463	      0.70869939	     68.53262309	      5.96791786	      1.19611992	     -5.36853495	    -10.76274529	    -14.01159774	     -3.73732601	      3.91003775	     -3.92530696	     20.30261604	      5.46256159	      0.35434750	     10.51559008	     -8.19594351	    -10.41679303	    -19.58007354	      2.53379482	     -0.52344465	      0.26882130	    -14.10502416	     -7.55577875	     33.96597601	     90.00000001	      0.00000000	      0.00000000	     -0.12831373	    -12.20821558	     -1.70693383	     44.10509865	     90.00000001	      0.00000000	      0.00000000
      0.87000000	     -0.79472215	      9.42257790	     88.21459143	      0.46006178	      0.97400535	     -0.67057565	     14.08899872	     -2.41958764	      0.29257597	     67.04592081	      5.96791786	      1.17017207	     -4.22357608	     -9.68646624	    -14.09665525	     -5.38034383	      3.42090655	     -3.85852485	     19.22224616	      5.46256159	      0.33549149	     10.64484048	     -7.11521485	    -10.31255137	    -19.97664835	      2.99037400	     -1.19209801	     -0.14013805	    -13.64089696	     -8.24723586	     33.15797533	     90.00000001	      0.00000000	      0.00000000	      0.18189976	    -12.59242648	     -2.04749521	     45.88174258	     90.00000001	      0.00000000	      0.00000000
      0.88000000	     -0.66870948	      9.07553778	     88.36994064	      0.45986967	      0.97523800	     -0.66933344	     15.78345040	     -2.14625816	      0.03518456	     65.46728311	      5.96791786	      1.14261964	     -3.41541126	     -9.32430150	    -14.09232059	     -6.27735805	      3.19702423	     -3.83404753	     18.41351570	      5.46256159	      0.32137648	     10.62899200	     -6.50166403	    -10.19842331	    -19.74535317	      3.17268939	     -1.39810269	     -1.02887809	    -13.35335418	     -8.38409405	     32.67148850	     90.00000001	      0.00000000	      0.00000000	      0.85203320	    -12.86978488	     -2.16268658	     46.99137734	     90.00000001	      0.00000000	      0.00000000
      0.89000000	     -0.30158452	      9.37526110	     88.74972570	      0.45963170	      0.97733430	     -0.66796085	     16.44732171	     -1.71661871	     -0.54039112	     63.33756136	      5.96791786	      1.10544899	     -2.47340883	     -8.29005889	    -13.79599435	     -7.88065179	      2.59666546	     -3.87180889	     17.63052362	      5.46256159	      0.30771069	     10.80750827	     -4.98782285	    -10.28155932	    -20.28581773	      3.63179469	     -2.09635150	     -1.31434398	    -12.82352727	     -9.37749718	     31.83402549	     90.00000001	      0.00000000	      0.00000000	      1.25345689	    -13.37967150	     -2.39820973	     48.79781504	     90.00000001	      0.00000000	      0.00000000
